<svg xmlns="http://www.w3.org/2000/svg" style="display: none;">
  <!-- Brain Icon -->
  <symbol id="brain-icon" viewBox="0 0 24 24">
    <path d="M21.33 12.91c-.09-1.4-.39-2.71-.89-3.89.51-.98.84-2.05.99-3.17.45-3.31-1.36-6.17-4.04-6.38-2.03-.16-3.89 1.08-4.67 2.91-.38-.08-.77-.12-1.17-.12-1.95 0-3.79.74-5.12 2.02-.59-.18-1.21-.28-1.86-.28C2.04 3 .5 4.54.5 6.5c0 1.19.61 2.25 1.57 2.91-.3 1.12-.35 2.29-.15 3.44.09.53.21 1.05.36 1.55-.19.36-.3.76-.3 1.18 0 1.38 1.12 2.5 2.5 2.5.19 0 .38-.02.56-.06-.08.23-.12.47-.12.72 0 1.38 1.12 2.5 2.5 2.5s2.5-1.12 2.5-2.5c0-.05 0-.1-.01-.15.44.09.9.15 1.37.15 2.01 0 3.93-.78 5.32-2.17.84.53 1.85.84 2.93.84 2.76 0 5-2.24 5-5 0-1.32-.51-2.52-1.35-3.41.12-.54.18-1.09.18-1.65 0-.22-.01-.44-.02-.67z"/>
  </symbol>

  <!-- Trophy Icon -->
  <symbol id="trophy-icon" viewBox="0 0 24 24">
    <path d="M7 4V2C7 1.45 7.45 1 8 1H16C16.55 1 17 1.45 17 2V4H18.5C19.88 4 21 5.12 21 6.5S19.88 9 18.5 9H18V10C18 12.21 16.21 14 14 14H13V17H15C15.55 17 16 17.45 16 18S15.55 19 15 19H9C8.45 19 8 18.55 8 18S8.45 17 9 17H11V14H10C7.79 14 6 12.21 6 10V9H5.5C4.12 9 3 7.88 3 6.5S4.12 4 5.5 4H7ZM5.5 6C5.22 6 5 6.22 5 6.5S5.22 7 5.5 7H6V6H5.5ZM18.5 6H18V7H18.5C18.78 7 19 6.78 19 6.5S18.78 6 18.5 6Z"/>
  </symbol>

  <!-- Star Icon -->
  <symbol id="star-icon" viewBox="0 0 24 24">
    <path d="M12 2L15.09 8.26L22 9.27L17 14.14L18.18 21.02L12 17.77L5.82 21.02L7 14.14L2 9.27L8.91 8.26L12 2Z"/>
  </symbol>

  <!-- Settings Icon -->
  <symbol id="settings-icon" viewBox="0 0 24 24">
    <path d="M12 15.5C13.933 15.5 15.5 13.933 15.5 12C15.5 10.067 13.933 8.5 12 8.5C10.067 8.5 8.5 10.067 8.5 12C8.5 13.933 10.067 15.5 12 15.5ZM19.43 12.98C19.47 12.66 19.5 12.34 19.5 12C19.5 11.66 19.47 11.34 19.43 11.02L21.54 9.37C21.73 9.22 21.78 8.95 21.66 8.73L19.66 5.27C19.54 5.05 19.27 4.97 19.05 5.05L16.56 6.05C16.04 5.65 15.48 5.32 14.87 5.07L14.49 2.42C14.46 2.18 14.25 2 14 2H10C9.75 2 9.54 2.18 9.51 2.42L9.13 5.07C8.52 5.32 7.96 5.66 7.44 6.05L4.95 5.05C4.73 4.96 4.46 5.05 4.34 5.27L2.34 8.73C2.21 8.95 2.27 9.22 2.46 9.37L4.57 11.02C4.53 11.34 4.5 11.67 4.5 12C4.5 12.33 4.53 12.66 4.57 12.98L2.46 14.63C2.27 14.78 2.21 15.05 2.34 15.27L4.34 18.73C4.46 18.95 4.73 19.03 4.95 18.95L7.44 17.95C7.96 18.35 8.52 18.68 9.13 18.93L9.51 21.58C9.54 21.82 9.75 22 10 22H14C14.25 22 14.46 21.82 14.49 21.58L14.87 18.93C15.48 18.68 16.04 18.34 16.56 17.95L19.05 18.95C19.27 19.04 19.54 18.95 19.66 18.73L21.66 15.27C21.78 15.05 21.73 14.78 21.54 14.63L19.43 12.98Z"/>
  </symbol>

  <!-- Home Icon -->
  <symbol id="home-icon" viewBox="0 0 24 24">
    <path d="M10 20V14H14V20H19V12H22L12 3L2 12H5V20H10Z"/>
  </symbol>

  <!-- Play Icon -->
  <symbol id="play-icon" viewBox="0 0 24 24">
    <path d="M8 5V19L19 12L8 5Z"/>
  </symbol>

  <!-- Clock Icon -->
  <symbol id="clock-icon" viewBox="0 0 24 24">
    <path d="M12 2C6.48 2 2 6.48 2 12S6.48 22 12 22 22 17.52 22 12 17.48 2 12 2ZM13 13H7V11H11V7H13V13Z"/>
  </symbol>

  <!-- Check Circle Icon -->
  <symbol id="check-circle-icon" viewBox="0 0 24 24">
    <path d="M12 2C6.48 2 2 6.48 2 12S6.48 22 12 22 22 17.52 22 12 17.48 2 12 2ZM10 17L5 12L6.41 10.59L10 14.17L17.59 6.58L19 8L10 17Z"/>
  </symbol>

  <!-- Times Circle Icon -->
  <symbol id="times-circle-icon" viewBox="0 0 24 24">
    <path d="M12 2C6.47 2 2 6.47 2 12S6.47 22 12 22 22 17.53 22 12 17.53 2 12 2ZM17 15.59L15.59 17L12 13.41L8.41 17L7 15.59L10.59 12L7 8.41L8.41 7L12 10.59L15.59 7L17 8.41L13.41 12L17 15.59Z"/>
  </symbol>

  <!-- Medal Icon -->
  <symbol id="medal-icon" viewBox="0 0 24 24">
    <path d="M12 2L13.09 8.26L22 9.27L17 14.14L18.18 21.02L12 17.77L5.82 21.02L7 14.14L2 9.27L8.91 8.26L12 2Z"/>
  </symbol>

  <!-- Target Icon -->
  <symbol id="target-icon" viewBox="0 0 24 24">
    <path d="M12 2C6.48 2 2 6.48 2 12S6.48 22 12 22 22 17.52 22 12 17.48 2 12 2ZM12 20C7.59 20 4 16.41 4 12S7.59 4 12 4 20 7.59 20 12 16.41 20 12 20ZM12 6C8.69 6 6 8.69 6 12S8.69 18 12 18 18 15.31 18 12 15.31 6 12 6ZM12 16C9.79 16 8 14.21 8 12S9.79 8 12 8 16 9.79 16 12 14.21 16 12 16ZM12 10C10.9 10 10 10.9 10 12S10.9 14 12 14 14 13.1 14 12 13.1 10 12 10Z"/>
  </symbol>
</svg>
